<svg width="21" height="22" viewBox="0 0 21 22" fill="none" xmlns="http://www.w3.org/2000/svg">
<path d="M19.6884 11.204C19.6884 10.4486 19.6259 9.89734 19.4905 9.32568H10.6884V12.7352H15.8551C15.7509 13.5825 15.1884 14.8586 13.9384 15.716L13.9209 15.8302L16.7039 17.9431L16.8967 17.9619C18.6675 16.3592 19.6884 14.0011 19.6884 11.204Z" fill="#4285F4"/>
<path d="M10.6878 20.1874C13.2191 20.1874 15.344 19.3707 16.8962 17.9619L13.9378 15.716C13.1462 16.2571 12.0836 16.6348 10.6878 16.6348C8.20871 16.6348 6.10457 15.0321 5.3545 12.8169L5.24455 12.826L2.3507 15.0209L2.31286 15.124C3.8545 18.1252 7.02116 20.1874 10.6878 20.1874Z" fill="#34A853"/>
<path d="M5.35505 12.817C5.15713 12.2454 5.04259 11.6328 5.04259 10.9999C5.04259 10.367 5.15713 9.75452 5.34463 9.18286L5.33939 9.06111L2.40927 6.83105L2.3134 6.87574C1.67801 8.12118 1.31342 9.51974 1.31342 10.9999C1.31342 12.4802 1.67801 13.8786 2.3134 15.1241L5.35505 12.817Z" fill="#FBBC05"/>
<path d="M10.6879 5.36498C12.4483 5.36498 13.6358 6.11018 14.3129 6.73293L16.9587 4.20125C15.3338 2.72105 13.2191 1.8125 10.6879 1.8125C7.02119 1.8125 3.85451 3.87457 2.31286 6.87579L5.3441 9.18291C6.10459 6.9677 8.20874 5.36498 10.6879 5.36498Z" fill="#EB4335"/>
</svg>
